SudoPixel-Regular.ufo
<glyph name="quotesingle" format="1">
  <advance width="448"/>
  <unicode hex="0027"/>
  <outline>
    <contour>
      <point x="192" y="576" type="line"/>
      <point x="256" y="576" type="line"/>
      <point x="256" y="640" type="line"/>
      <point x="192" y="640" type="line"/>
    </contour>
    <contour>
      <point x="192" y="512" type="line"/>
      <point x="256" y="512" type="line"/>
      <point x="256" y="576" type="line"/>
      <point x="192" y="576" type="line"/>
    </contour>
    <contour>
      <point x="192" y="448" type="line"/>
      <point x="256" y="448" type="line"/>
      <point x="256" y="512" type="line"/>
      <point x="192" y="512" type="line"/>
    </contour>
    <contour>
      <point x="192" y="384" type="line"/>
      <point x="256" y="384" type="line"/>
      <point x="256" y="448" type="line"/>
      <point x="192" y="448" type="line"/>
    </contour>
  </outline>
</glyph>
<glyph name="period" format="1">
  <advance width="448"/>
  <unicode hex="002E"/>
  <outline>
    <contour>
      <point x="192" y="64" type="line"/>
      <point x="256" y="64" type="line"/>
      <point x="256" y="128" type="line"/>
      <point x="192" y="128" type="line"/>
    </contour>
    <contour>
      <point x="192" y="0" type="line"/>
      <point x="256" y="0" type="line"/>
      <point x="256" y="64" type="line"/>
      <point x="192" y="64" type="line"/>
    </contour>
    <contour>
      <point x="128" y="0" type="line"/>
      <point x="192" y="0" type="line"/>
      <point x="192" y="64" type="line"/>
      <point x="128" y="64" type="line"/>
    </contour>
    <contour>
      <point x="128" y="64" type="line"/>
      <point x="192" y="64" type="line"/>
      <point x="192" y="128" type="line"/>
      <point x="128" y="128" type="line"/>
    </contour>
  </outline>
</glyph>
<glyph name="seven" format="1">
  <advance width="448"/>
  <unicode hex="0037"/>
  <outline>
    <contour>
      <point x="64" y="512" type="line"/>
      <point x="128" y="512" type="line"/>
      <point x="128" y="576" type="line"/>
      <point x="64" y="576" type="line"/>
    </contour>
    <contour>
      <point x="128" y="512" type="line"/>
      <point x="192" y="512" type="line"/>
      <point x="192" y="576" type="line"/>
      <point x="128" y="576" type="line"/>
    </contour>
    <contour>
      <point x="192" y="512" type="line"/>
      <point x="256" y="512" type="line"/>
      <point x="256" y="576" type="line"/>
      <point x="192" y="576" type="line"/>
    </contour>
    <contour>
      <point x="256" y="512" type="line"/>
      <point x="320" y="512" type="line"/>
      <point x="320" y="576" type="line"/>
      <point x="256" y="576" type="line"/>
    </contour>
    <contour>
      <point x="320" y="512" type="line"/>
      <point x="384" y="512" type="line"/>
      <point x="384" y="576" type="line"/>
      <point x="320" y="576" type="line"/>
    </contour>
    <contour>
      <point x="320" y="448" type="line"/>
      <point x="384" y="448" type="line"/>
      <point x="384" y="512" type="line"/>
      <point x="320" y="512" type="line"/>
    </contour>
    <contour>
      <point x="320" y="384" type="line"/>
      <point x="384" y="384" type="line"/>
      <point x="384" y="448" type="line"/>
      <point x="320" y="448" type="line"/>
    </contour>
    <contour>
      <point x="256" y="256" type="line"/>
      <point x="320" y="256" type="line"/>
      <point x="320" y="320" type="line"/>
      <point x="256" y="320" type="line"/>
    </contour>
    <contour>
      <point x="128" y="0" type="line"/>
      <point x="192" y="0" type="line"/>
      <point x="192" y="64" type="line"/>
      <point x="128" y="64" type="line"/>
    </contour>
    <contour>
      <point x="192" y="128" type="line"/>
      <point x="256" y="128" type="line"/>
      <point x="256" y="192" type="line"/>
      <point x="192" y="192" type="line"/>
    </contour>
    <contour>
      <point x="192" y="64" type="line"/>
      <point x="256" y="64" type="line"/>
      <point x="256" y="128" type="line"/>
      <point x="192" y="128" type="line"/>
    </contour>
    <contour>
      <point x="256" y="192" type="line"/>
      <point x="320" y="192" type="line"/>
      <point x="320" y="256" type="line"/>
      <point x="256" y="256" type="line"/>
    </contour>
    <contour>
      <point x="256" y="320" type="line"/>
      <point x="320" y="320" type="line"/>
      <point x="320" y="384" type="line"/>
      <point x="256" y="384" type="line"/>
    </contour>
  </outline>
</glyph>
<glyph name="colon" format="1">
  <advance width="448"/>
  <unicode hex="003A"/>
  <outline>
    <contour>
      <point x="192" y="64" type="line"/>
      <point x="256" y="64" type="line"/>
      <point x="256" y="128" type="line"/>
      <point x="192" y="128" type="line"/>
    </contour>
    <contour>
      <point x="192" y="0" type="line"/>
      <point x="256" y="0" type="line"/>
      <point x="256" y="64" type="line"/>
      <point x="192" y="64" type="line"/>
    </contour>
    <contour>
      <point x="128" y="0" type="line"/>
      <point x="192" y="0" type="line"/>
      <point x="192" y="64" type="line"/>
      <point x="128" y="64" type="line"/>
    </contour>
    <contour>
      <point x="128" y="64" type="line"/>
      <point x="192" y="64" type="line"/>
      <point x="192" y="128" type="line"/>
      <point x="128" y="128" type="line"/>
    </contour>
    <contour>
      <point x="128" y="384" type="line"/>
      <point x="192" y="384" type="line"/>
      <point x="192" y="448" type="line"/>
      <point x="128" y="448" type="line"/>
    </contour>
    <contour>
      <point x="128" y="320" type="line"/>
      <point x="192" y="320" type="line"/>
      <point x="192" y="384" type="line"/>
      <point x="128" y="384" type="line"/>
    </contour>
    <contour>
      <point x="192" y="320" type="line"/>
      <point x="256" y="320" type="line"/>
      <point x="256" y="384" type="line"/>
      <point x="192" y="384" type="line"/>
    </contour>
    <contour>
      <point x="192" y="384" type="line"/>
      <point x="256" y="384" type="line"/>
      <point x="256" y="448" type="line"/>
      <point x="192" y="448" type="line"/>
    </contour>
  </outline>
</glyph>
<glyph name="underscore" format="1">
  <advance width="448"/>
  <unicode hex="005F"/>
  <outline>
    <contour>
      <point x="0" y="-192" type="line"/>
      <point x="64" y="-192" type="line"/>
      <point x="64" y="-128" type="line"/>
      <point x="0" y="-128" type="line"/>
    </contour>
    <contour>
      <point x="64" y="-192" type="line"/>
      <point x="128" y="-192" type="line"/>
      <point x="128" y="-128" type="line"/>
      <point x="64" y="-128" type="line"/>
    </contour>
    <contour>
      <point x="128" y="-192" type="line"/>
      <point x="192" y="-192" type="line"/>
      <point x="192" y="-128" type="line"/>
      <point x="128" y="-128" type="line"/>
    </contour>
    <contour>
      <point x="192" y="-192" type="line"/>
      <point x="256" y="-192" type="line"/>
      <point x="256" y="-128" type="line"/>
      <point x="192" y="-128" type="line"/>
    </contour>
    <contour>
      <point x="256" y="-192" type="line"/>
      <point x="320" y="-192" type="line"/>
      <point x="320" y="-128" type="line"/>
      <point x="256" y="-128" type="line"/>
    </contour>
    <contour>
      <point x="320" y="-192" type="line"/>
      <point x="384" y="-192" type="line"/>
      <point x="384" y="-128" type="line"/>
      <point x="320" y="-128" type="line"/>
    </contour>
    <contour>
      <point x="384" y="-192" type="line"/>
      <point x="448" y="-192" type="line"/>
      <point x="448" y="-128" type="line"/>
      <point x="384" y="-128" type="line"/>
    </contour>
  </outline>
</glyph>
<glyph name="grave" format="1">
  <advance width="448"/>
  <unicode hex="0060"/>
  <outline>
    <contour>
      <point x="192" y="512" type="line"/>
      <point x="256" y="512" type="line"/>
      <point x="256" y="576" type="line"/>
      <point x="192" y="576" type="line"/>
    </contour>
    <contour>
      <point x="192" y="576" type="line"/>
      <point x="256" y="576" type="line"/>
      <point x="256" y="640" type="line"/>
      <point x="192" y="640" type="line"/>
    </contour>
    <contour>
      <point x="256" y="384" type="line"/>
      <point x="320" y="384" type="line"/>
      <point x="320" y="448" type="line"/>
      <point x="256" y="448" type="line"/>
    </contour>
    <contour>
      <point x="256" y="448" type="line"/>
      <point x="320" y="448" type="line"/>
      <point x="320" y="512" type="line"/>
      <point x="256" y="512" type="line"/>
    </contour>
  </outline>
</glyph>
<glyph name="brokenbar" format="1">
  <advance width="448"/>
  <unicode hex="00A6"/>
  <outline>
    <contour>
      <point x="192" y="576" type="line"/>
      <point x="256" y="576" type="line"/>
      <point x="256" y="640" type="line"/>
      <point x="192" y="640" type="line"/>
    </contour>
    <contour>
      <point x="192" y="512" type="line"/>
      <point x="256" y="512" type="line"/>
      <point x="256" y="576" type="line"/>
      <point x="192" y="576" type="line"/>
    </contour>
    <contour>
      <point x="192" y="448" type="line"/>
      <point x="256" y="448" type="line"/>
      <point x="256" y="512" type="line"/>
      <point x="192" y="512" type="line"/>
    </contour>
    <contour>
      <point x="192" y="384" type="line"/>
      <point x="256" y="384" type="line"/>
      <point x="256" y="448" type="line"/>
      <point x="192" y="448" type="line"/>
    </contour>
    <contour>
      <point x="192" y="320" type="line"/>
      <point x="256" y="320" type="line"/>
      <point x="256" y="384" type="line"/>
      <point x="192" y="384" type="line"/>
    </contour>
    <contour>
      <point x="192" y="128" type="line"/>
      <point x="256" y="128" type="line"/>
      <point x="256" y="192" type="line"/>
      <point x="192" y="192" type="line"/>
    </contour>
    <contour>
      <point x="192" y="64" type="line"/>
      <point x="256" y="64" type="line"/>
      <point x="256" y="128" type="line"/>
      <point x="192" y="128" type="line"/>
    </contour>
    <contour>
      <point x="192" y="0" type="line"/>
      <point x="256" y="0" type="line"/>
      <point x="256" y="64" type="line"/>
      <point x="192" y="64" type="line"/>
    </contour>
    <contour>
      <point x="192" y="-64" type="line"/>
      <point x="256" y="-64" type="line"/>
      <point x="256" y="0" type="line"/>
      <point x="192" y="0" type="line"/>
    </contour>
    <contour>
      <point x="192" y="-128" type="line"/>
      <point x="256" y="-128" type="line"/>
      <point x="256" y="-64" type="line"/>
      <point x="192" y="-64" type="line"/>
    </contour>
    <contour>
      <point x="192" y="-192" type="line"/>
      <point x="256" y="-192" type="line"/>
      <point x="256" y="-128" type="line"/>
      <point x="192" y="-128" type="line"/>
    </contour>
    <contour>
      <point x="192" y="640" type="line"/>
      <point x="256" y="640" type="line"/>
      <point x="256" y="704" type="line"/>
      <point x="192" y="704" type="line"/>
    </contour>
  </outline>
</glyph>
<glyph name="twosuperior" format="1">
  <advance width="448"/>
  <unicode hex="00B2"/>
  <outline>
    <contour>
      <point x="64" y="320" type="line"/>
      <point x="128" y="320" type="line"/>
      <point x="128" y="384" type="line"/>
      <point x="64" y="384" type="line"/>
    </contour>
    <contour>
      <point x="128" y="320" type="line"/>
      <point x="192" y="320" type="line"/>
      <point x="192" y="384" type="line"/>
      <point x="128" y="384" type="line"/>
    </contour>
    <contour>
      <point x="192" y="320" type="line"/>
      <point x="256" y="320" type="line"/>
      <point x="256" y="384" type="line"/>
      <point x="192" y="384" type="line"/>
    </contour>
    <contour>
      <point x="128" y="576" type="line"/>
      <point x="192" y="576" type="line"/>
      <point x="192" y="640" type="line"/>
      <point x="128" y="640" type="line"/>
    </contour>
    <contour>
      <point x="64" y="576" type="line"/>
      <point x="128" y="576" type="line"/>
      <point x="128" y="640" type="line"/>
      <point x="64" y="640" type="line"/>
    </contour>
    <contour>
      <point x="192" y="512" type="line"/>
      <point x="256" y="512" type="line"/>
      <point x="256" y="576" type="line"/>
      <point x="192" y="576" type="line"/>
    </contour>
    <contour>
      <point x="64" y="384" type="line"/>
      <point x="128" y="384" type="line"/>
      <point x="128" y="448" type="line"/>
      <point x="64" y="448" type="line"/>
    </contour>
    <contour>
      <point x="128" y="448" type="line"/>
      <point x="192" y="448" type="line"/>
      <point x="192" y="512" type="line"/>
      <point x="128" y="512" type="line"/>
    </contour>
  </outline>
</glyph>
<glyph name="acute" format="1">
  <advance width="448"/>
  <unicode hex="00B4"/>
  <outline>
    <contour>
      <point x="192" y="576" type="line"/>
      <point x="256" y="576" type="line"/>
      <point x="256" y="640" type="line"/>
      <point x="192" y="640" type="line"/>
    </contour>
    <contour>
      <point x="192" y="512" type="line"/>
      <point x="256" y="512" type="line"/>
      <point x="256" y="576" type="line"/>
      <point x="192" y="576" type="line"/>
    </contour>
    <contour>
      <point x="128" y="384" type="line"/>
      <point x="192" y="384" type="line"/>
      <point x="192" y="448" type="line"/>
      <point x="128" y="448" type="line"/>
    </contour>
    <contour>
      <point x="128" y="448" type="line"/>
      <point x="192" y="448" type="line"/>
      <point x="192" y="512" type="line"/>
      <point x="128" y="512" type="line"/>
    </contour>
  </outline>
</glyph>
<glyph name="multiply" format="1">
  <advance width="448"/>
  <unicode hex="00D7"/>
  <outline>
    <contour>
      <point x="192" y="256" type="line"/>
      <point x="256" y="256" type="line"/>
      <point x="256" y="320" type="line"/>
      <point x="192" y="320" type="line"/>
    </contour>
    <contour>
      <point x="256" y="320" type="line"/>
      <point x="320" y="320" type="line"/>
      <point x="320" y="384" type="line"/>
      <point x="256" y="384" type="line"/>
    </contour>
    <contour>
      <point x="320" y="384" type="line"/>
      <point x="384" y="384" type="line"/>
      <point x="384" y="448" type="line"/>
      <point x="320" y="448" type="line"/>
    </contour>
    <contour>
      <point x="128" y="320" type="line"/>
      <point x="192" y="320" type="line"/>
      <point x="192" y="384" type="line"/>
      <point x="128" y="384" type="line"/>
    </contour>
    <contour>
      <point x="64" y="384" type="line"/>
      <point x="128" y="384" type="line"/>
      <point x="128" y="448" type="line"/>
      <point x="64" y="448" type="line"/>
    </contour>
    <contour>
      <point x="128" y="192" type="line"/>
      <point x="192" y="192" type="line"/>
      <point x="192" y="256" type="line"/>
      <point x="128" y="256" type="line"/>
    </contour>
    <contour>
      <point x="64" y="128" type="line"/>
      <point x="128" y="128" type="line"/>
      <point x="128" y="192" type="line"/>
      <point x="64" y="192" type="line"/>
    </contour>
    <contour>
      <point x="256" y="192" type="line"/>
      <point x="320" y="192" type="line"/>
      <point x="320" y="256" type="line"/>
      <point x="256" y="256" type="line"/>
    </contour>
    <contour>
      <point x="320" y="128" type="line"/>
      <point x="384" y="128" type="line"/>
      <point x="384" y="192" type="line"/>
      <point x="320" y="192" type="line"/>
    </contour>
  </outline>
</glyph>
<glyph name="dcroat" format="1">
  <advance width="448"/>
  <unicode hex="0111"/>
  <outline>
    <contour>
      <point x="384" y="512" type="line"/>
      <point x="448" y="512" type="line"/>
      <point x="448" y="576" type="line"/>
      <point x="384" y="576" type="line"/>
    </contour>
    <contour>
      <point x="256" y="512" type="line"/>
      <point x="320" y="512" type="line"/>
      <point x="320" y="576" type="line"/>
      <point x="256" y="576" type="line"/>
    </contour>
    <contour>
      <point x="192" y="512" type="line"/>
      <point x="256" y="512" type="line"/>
      <point x="256" y="576" type="line"/>
      <point x="192" y="576" type="line"/>
    </contour>
    <component base="d"/>
  </outline>
</glyph>
<glyph name="hbar" format="1">
  <advance width="448"/>
  <unicode hex="0127"/>
  <outline>
    <contour>
      <point x="0" y="512" type="line"/>
      <point x="256" y="512" type="line"/>
      <point x="256" y="576" type="line"/>
      <point x="0" y="576" type="line"/>
    </contour>
    <component base="h"/>
  </outline>
</glyph>
<glyph name="Lslash" format="1">
  <advance width="448"/>
  <unicode hex="0141"/>
  <outline>
    <contour>
      <point x="192" y="320" type="line"/>
      <point x="256" y="320" type="line"/>
      <point x="256" y="384" type="line"/>
      <point x="192" y="384" type="line"/>
    </contour>
    <contour>
      <point x="128" y="256" type="line"/>
      <point x="192" y="256" type="line"/>
      <point x="192" y="320" type="line"/>
      <point x="128" y="320" type="line"/>
    </contour>
    <contour>
      <point x="0" y="128" type="line"/>
      <point x="64" y="128" type="line"/>
      <point x="64" y="192" type="line"/>
      <point x="0" y="192" type="line"/>
    </contour>
    <component base="L"/>
  </outline>
</glyph>
<glyph name="lslash" format="1">
  <advance width="448"/>
  <unicode hex="0142"/>
  <outline>
    <contour>
      <point x="128" y="128" type="line"/>
      <point x="192" y="128" type="line"/>
      <point x="192" y="192" type="line"/>
      <point x="128" y="192" type="line"/>
    </contour>
    <contour>
      <point x="256" y="256" type="line"/>
      <point x="320" y="256" type="line"/>
      <point x="320" y="320" type="line"/>
      <point x="256" y="320" type="line"/>
    </contour>
    <contour>
      <point x="320" y="320" type="line"/>
      <point x="384" y="320" type="line"/>
      <point x="384" y="384" type="line"/>
      <point x="320" y="384" type="line"/>
    </contour>
    <component base="l"/>
  </outline>
</glyph>
<glyph name="napostrophe" format="1">
  <advance width="448"/>
  <unicode hex="0149"/>
  <outline>
    <contour>
      <point x="64" y="576" type="line"/>
      <point x="128" y="576" type="line"/>
      <point x="128" y="640" type="line"/>
      <point x="64" y="640" type="line"/>
    </contour>
    <contour>
      <point x="64" y="640" type="line"/>
      <point x="128" y="640" type="line"/>
      <point x="128" y="704" type="line"/>
      <point x="64" y="704" type="line"/>
    </contour>
    <contour>
      <point x="0" y="512" type="line"/>
      <point x="64" y="512" type="line"/>
      <point x="64" y="576" type="line"/>
      <point x="0" y="576" type="line"/>
    </contour>
    <contour>
      <point x="0" y="640" type="line"/>
      <point x="64" y="640" type="line"/>
      <point x="64" y="704" type="line"/>
      <point x="0" y="704" type="line"/>
    </contour>
    <component base="n"/>
  </outline>
</glyph>
<glyph name="Eng" format="1">
  <advance width="448"/>
  <unicode hex="014A"/>
  <outline>
    <contour>
      <point x="320" y="-64" type="line"/>
      <point x="384" y="-64" type="line"/>
      <point x="384" y="0" type="line"/>
      <point x="320" y="0" type="line"/>
    </contour>
    <contour>
      <point x="320" y="-128" type="line"/>
      <point x="384" y="-128" type="line"/>
      <point x="384" y="-64" type="line"/>
      <point x="320" y="-64" type="line"/>
    </contour>
    <contour>
      <point x="256" y="-192" type="line"/>
      <point x="320" y="-192" type="line"/>
      <point x="320" y="-128" type="line"/>
      <point x="256" y="-128" type="line"/>
    </contour>
    <component base="N"/>
  </outline>
</glyph>
<glyph name="Tbar" format="1">
  <advance width="448"/>
  <unicode hex="0166"/>
  <outline>
    <contour>
      <point x="64" y="256" type="line"/>
      <point x="128" y="256" type="line"/>
      <point x="128" y="320" type="line"/>
      <point x="64" y="320" type="line"/>
    </contour>
    <contour>
      <point x="128" y="256" type="line"/>
      <point x="192" y="256" type="line"/>
      <point x="192" y="320" type="line"/>
      <point x="128" y="320" type="line"/>
    </contour>
    <contour>
      <point x="256" y="256" type="line"/>
      <point x="320" y="256" type="line"/>
      <point x="320" y="320" type="line"/>
      <point x="256" y="320" type="line"/>
    </contour>
    <contour>
      <point x="320" y="256" type="line"/>
      <point x="384" y="256" type="line"/>
      <point x="384" y="320" type="line"/>
      <point x="320" y="320" type="line"/>
    </contour>
    <contour>
      <point x="192" y="256" type="line"/>
      <point x="256" y="256" type="line"/>
      <point x="256" y="320" type="line"/>
      <point x="192" y="320" type="line"/>
    </contour>
    <component base="T"/>
  </outline>
</glyph>
<glyph name="tbar" format="1">
  <advance width="448"/>
  <unicode hex="0167"/>
  <outline>
    <contour>
      <point x="64" y="192" type="line"/>
      <point x="128" y="192" type="line"/>
      <point x="128" y="256" type="line"/>
      <point x="64" y="256" type="line"/>
    </contour>
    <contour>
      <point x="128" y="192" type="line"/>
      <point x="192" y="192" type="line"/>
      <point x="192" y="256" type="line"/>
      <point x="128" y="256" type="line"/>
    </contour>
    <contour>
      <point x="192" y="192" type="line"/>
      <point x="256" y="192" type="line"/>
      <point x="256" y="256" type="line"/>
      <point x="192" y="256" type="line"/>
    </contour>
    <contour>
      <point x="256" y="192" type="line"/>
      <point x="320" y="192" type="line"/>
      <point x="320" y="256" type="line"/>
      <point x="256" y="256" type="line"/>
    </contour>
    <component base="t"/>
  </outline>
</glyph>
<glyph name="gravecomb" format="1">
  <advance width="448"/>
  <unicode hex="0300"/>
  <outline>
    <contour>
      <point x="224" y="448" type="move" name="_top"/>
    </contour>
    <contour>
      <point x="192" y="512" type="line"/>
      <point x="256" y="512" type="line"/>
      <point x="256" y="576" type="line"/>
      <point x="192" y="576" type="line"/>
    </contour>
    <contour>
      <point x="128" y="576" type="line"/>
      <point x="192" y="576" type="line"/>
      <point x="192" y="640" type="line"/>
      <point x="128" y="640" type="line"/>
    </contour>
  </outline>
</glyph>
<glyph name="acutecomb" format="1">
  <advance width="448"/>
  <unicode hex="0301"/>
  <outline>
    <contour>
      <point x="224" y="448" type="move" name="_top"/>
    </contour>
    <contour>
      <point x="192" y="512" type="line"/>
      <point x="256" y="512" type="line"/>
      <point x="256" y="576" type="line"/>
      <point x="192" y="576" type="line"/>
    </contour>
    <contour>
      <point x="256" y="576" type="line"/>
      <point x="320" y="576" type="line"/>
      <point x="320" y="640" type="line"/>
      <point x="256" y="640" type="line"/>
    </contour>
  </outline>
</glyph>
<glyph name="uni0302" format="1">
  <advance width="448"/>
  <unicode hex="0302"/>
  <outline>
    <contour>
      <point x="224" y="448" type="move" name="_top"/>
    </contour>
    <contour>
      <point x="128" y="512" type="line"/>
      <point x="192" y="512" type="line"/>
      <point x="192" y="576" type="line"/>
      <point x="128" y="576" type="line"/>
    </contour>
    <contour>
      <point x="192" y="576" type="line"/>
      <point x="256" y="576" type="line"/>
      <point x="256" y="640" type="line"/>
      <point x="192" y="640" type="line"/>
    </contour>
    <contour>
      <point x="256" y="512" type="line"/>
      <point x="320" y="512" type="line"/>
      <point x="320" y="576" type="line"/>
      <point x="256" y="576" type="line"/>
    </contour>
  </outline>
</glyph>
<glyph name="uni0305" format="1">
  <advance width="448"/>
  <unicode hex="0305"/>
  <note>
    overline
  </note>
  <outline>
    <contour>
      <point x="224" y="640" type="move" name="_top"/>
    </contour>
    <contour>
      <point x="0" y="768" type="line"/>
      <point x="64" y="768" type="line"/>
      <point x="64" y="832" type="line"/>
      <point x="0" y="832" type="line"/>
    </contour>
    <contour>
      <point x="64" y="768" type="line"/>
      <point x="128" y="768" type="line"/>
      <point x="128" y="832" type="line"/>
      <point x="64" y="832" type="line"/>
    </contour>
    <contour>
      <point x="128" y="768" type="line"/>
      <point x="192" y="768" type="line"/>
      <point x="192" y="832" type="line"/>
      <point x="128" y="832" type="line"/>
    </contour>
    <contour>
      <point x="192" y="768" type="line"/>
      <point x="256" y="768" type="line"/>
      <point x="256" y="832" type="line"/>
      <point x="192" y="832" type="line"/>
    </contour>
    <contour>
      <point x="256" y="768" type="line"/>
      <point x="320" y="768" type="line"/>
      <point x="320" y="832" type="line"/>
      <point x="256" y="832" type="line"/>
    </contour>
    <contour>
      <point x="320" y="768" type="line"/>
      <point x="384" y="768" type="line"/>
      <point x="384" y="832" type="line"/>
      <point x="320" y="832" type="line"/>
    </contour>
    <contour>
      <point x="384" y="768" type="line"/>
      <point x="448" y="768" type="line"/>
      <point x="448" y="832" type="line"/>
      <point x="384" y="832" type="line"/>
    </contour>
  </outline>
</glyph>
<glyph name="uni0308" format="1">
  <advance width="448"/>
  <unicode hex="0308"/>
  <outline>
    <contour>
      <point x="224" y="448" type="move" name="_top"/>
    </contour>
    <contour>
      <point x="64" y="512" type="line"/>
      <point x="128" y="512" type="line"/>
      <point x="128" y="576" type="line"/>
      <point x="64" y="576" type="line"/>
    </contour>
    <contour>
      <point x="64" y="576" type="line"/>
      <point x="128" y="576" type="line"/>
      <point x="128" y="640" type="line"/>
      <point x="64" y="640" type="line"/>
    </contour>
    <contour>
      <point x="320" y="576" type="line"/>
      <point x="384" y="576" type="line"/>
      <point x="384" y="640" type="line"/>
      <point x="320" y="640" type="line"/>
    </contour>
    <contour>
      <point x="320" y="512" type="line"/>
      <point x="384" y="512" type="line"/>
      <point x="384" y="576" type="line"/>
      <point x="320" y="576" type="line"/>
    </contour>
  </outline>
</glyph>
<glyph name="uni030B" format="1">
  <advance width="448"/>
  <unicode hex="030B"/>
  <outline>
    <contour>
      <point x="224" y="448" type="move" name="_top"/>
    </contour>
    <contour>
      <point x="128" y="512" type="line"/>
      <point x="192" y="512" type="line"/>
      <point x="192" y="576" type="line"/>
      <point x="128" y="576" type="line"/>
    </contour>
    <contour>
      <point x="192" y="576" type="line"/>
      <point x="256" y="576" type="line"/>
      <point x="256" y="640" type="line"/>
      <point x="192" y="640" type="line"/>
    </contour>
    <contour>
      <point x="320" y="512" type="line"/>
      <point x="384" y="512" type="line"/>
      <point x="384" y="576" type="line"/>
      <point x="320" y="576" type="line"/>
    </contour>
    <contour>
      <point x="384" y="576" type="line"/>
      <point x="448" y="576" type="line"/>
      <point x="448" y="640" type="line"/>
      <point x="384" y="640" type="line"/>
    </contour>
    <contour>
      <point x="192" y="640" type="line"/>
      <point x="256" y="640" type="line"/>
      <point x="256" y="704" type="line"/>
      <point x="192" y="704" type="line"/>
    </contour>
    <contour>
      <point x="384" y="640" type="line"/>
      <point x="448" y="640" type="line"/>
      <point x="448" y="704" type="line"/>
      <point x="384" y="704" type="line"/>
    </contour>
  </outline>
</glyph>
<glyph name="uni0315" format="1">
  <advance width="448"/>
  <unicode hex="0315"/>
  <outline>
    <contour>
      <point x="384" y="576" type="line"/>
      <point x="448" y="576" type="line"/>
      <point x="448" y="640" type="line"/>
      <point x="384" y="640" type="line"/>
    </contour>
    <contour>
      <point x="384" y="512" type="line"/>
      <point x="448" y="512" type="line"/>
      <point x="448" y="576" type="line"/>
      <point x="384" y="576" type="line"/>
    </contour>
    <contour>
      <point x="320" y="448" type="line"/>
      <point x="384" y="448" type="line"/>
      <point x="384" y="512" type="line"/>
      <point x="320" y="512" type="line"/>
    </contour>
  </outline>
</glyph>
<glyph name="uni0327" format="1">
  <advance width="448"/>
  <unicode hex="0327"/>
  <outline>
    <contour>
      <point x="224" y="0" type="move" name="_bottom"/>
    </contour>
    <contour>
      <point x="192" y="-64" type="line"/>
      <point x="256" y="-64" type="line"/>
      <point x="256" y="0" type="line"/>
      <point x="192" y="0" type="line"/>
    </contour>
    <contour>
      <point x="256" y="-128" type="line"/>
      <point x="320" y="-128" type="line"/>
      <point x="320" y="-64" type="line"/>
      <point x="256" y="-64" type="line"/>
    </contour>
    <contour>
      <point x="256" y="-192" type="line"/>
      <point x="320" y="-192" type="line"/>
      <point x="320" y="-128" type="line"/>
      <point x="256" y="-128" type="line"/>
    </contour>
    <contour>
      <point x="192" y="-192" type="line"/>
      <point x="256" y="-192" type="line"/>
      <point x="256" y="-128" type="line"/>
      <point x="192" y="-128" type="line"/>
    </contour>
  </outline>
</glyph>
<glyph name="uni0328" format="1">
  <advance width="448"/>
  <unicode hex="0328"/>
  <outline>
    <contour>
      <point x="352" y="0" type="move" name="_bottom"/>
    </contour>
    <contour>
      <point x="320" y="-64" type="line"/>
      <point x="384" y="-64" type="line"/>
      <point x="384" y="0" type="line"/>
      <point x="320" y="0" type="line"/>
    </contour>
    <contour>
      <point x="256" y="-128" type="line"/>
      <point x="320" y="-128" type="line"/>
      <point x="320" y="-64" type="line"/>
      <point x="256" y="-64" type="line"/>
    </contour>
    <contour>
      <point x="320" y="-192" type="line"/>
      <point x="384" y="-192" type="line"/>
      <point x="384" y="-128" type="line"/>
      <point x="320" y="-128" type="line"/>
    </contour>
    <contour>
      <point x="256" y="-192" type="line"/>
      <point x="320" y="-192" type="line"/>
      <point x="320" y="-128" type="line"/>
      <point x="256" y="-128" type="line"/>
    </contour>
  </outline>
</glyph>
<glyph name="uni0344" format="1">
  <advance width="448"/>
  <unicode hex="0344"/>
  <outline>
    <contour>
      <point x="192" y="576" type="line"/>
      <point x="256" y="576" type="line"/>
      <point x="256" y="640" type="line"/>
      <point x="192" y="640" type="line"/>
    </contour>
    <contour>
      <point x="192" y="512" type="line"/>
      <point x="256" y="512" type="line"/>
      <point x="256" y="576" type="line"/>
      <point x="192" y="576" type="line"/>
    </contour>
    <contour>
      <point x="192" y="640" type="line"/>
      <point x="256" y="640" type="line"/>
      <point x="256" y="704" type="line"/>
      <point x="192" y="704" type="line"/>
    </contour>
    <contour>
      <point x="64" y="576" type="line"/>
      <point x="128" y="576" type="line"/>
      <point x="128" y="640" type="line"/>
      <point x="64" y="640" type="line"/>
    </contour>
    <contour>
      <point x="64" y="512" type="line"/>
      <point x="128" y="512" type="line"/>
      <point x="128" y="576" type="line"/>
      <point x="64" y="576" type="line"/>
    </contour>
    <contour>
      <point x="320" y="512" type="line"/>
      <point x="384" y="512" type="line"/>
      <point x="384" y="576" type="line"/>
      <point x="320" y="576" type="line"/>
    </contour>
    <contour>
      <point x="320" y="576" type="line"/>
      <point x="384" y="576" type="line"/>
      <point x="384" y="640" type="line"/>
      <point x="320" y="640" type="line"/>
    </contour>
  </outline>
</glyph>
<glyph name="tonos" format="1">
  <advance width="448"/>
  <unicode hex="0384"/>
  <outline>
    <contour>
      <point x="192" y="576" type="line"/>
      <point x="256" y="576" type="line"/>
      <point x="256" y="640" type="line"/>
      <point x="192" y="640" type="line"/>
    </contour>
    <contour>
      <point x="192" y="512" type="line"/>
      <point x="256" y="512" type="line"/>
      <point x="256" y="576" type="line"/>
      <point x="192" y="576" type="line"/>
    </contour>
    <contour>
      <point x="192" y="640" type="line"/>
      <point x="256" y="640" type="line"/>
      <point x="256" y="704" type="line"/>
      <point x="192" y="704" type="line"/>
    </contour>
  </outline>
</glyph>
<glyph name="anoteleia" format="1">
  <advance width="448"/>
  <unicode hex="0387"/>
  <outline>
    <contour>
      <point x="192" y="192" type="line"/>
      <point x="256" y="192" type="line"/>
      <point x="256" y="256" type="line"/>
      <point x="192" y="256" type="line"/>
    </contour>
    <contour>
      <point x="192" y="256" type="line"/>
      <point x="256" y="256" type="line"/>
      <point x="256" y="320" type="line"/>
      <point x="192" y="320" type="line"/>
    </contour>
  </outline>
</glyph>
<glyph name="Gamma" format="1">
  <advance width="448"/>
  <unicode hex="0393"/>
  <outline>
    <contour>
      <point x="384" y="640" type="line"/>
      <point x="60" y="640" type="line"/>
      <point x="60" y="0" type="line"/>
      <point x="132" y="0" type="line"/>
      <point x="132" y="576" type="line"/>
      <point x="384" y="576" type="line"/>
    </contour>
  </outline>
</glyph>
<glyph name="Xi" format="1">
  <advance width="448"/>
  <unicode hex="039E"/>
  <outline>
    <contour>
      <point x="64" y="576" type="line"/>
      <point x="128" y="576" type="line"/>
      <point x="128" y="640" type="line"/>
      <point x="64" y="640" type="line"/>
    </contour>
    <contour>
      <point x="128" y="576" type="line"/>
      <point x="192" y="576" type="line"/>
      <point x="192" y="640" type="line"/>
      <point x="128" y="640" type="line"/>
    </contour>
    <contour>
      <point x="192" y="576" type="line"/>
      <point x="256" y="576" type="line"/>
      <point x="256" y="640" type="line"/>
      <point x="192" y="640" type="line"/>
    </contour>
    <contour>
      <point x="256" y="576" type="line"/>
      <point x="320" y="576" type="line"/>
      <point x="320" y="640" type="line"/>
      <point x="256" y="640" type="line"/>
    </contour>
    <contour>
      <point x="320" y="576" type="line"/>
      <point x="384" y="576" type="line"/>
      <point x="384" y="640" type="line"/>
      <point x="320" y="640" type="line"/>
    </contour>
    <contour>
      <point x="64" y="0" type="line"/>
      <point x="128" y="0" type="line"/>
      <point x="128" y="64" type="line"/>
      <point x="64" y="64" type="line"/>
    </contour>
    <contour>
      <point x="128" y="0" type="line"/>
      <point x="192" y="0" type="line"/>
      <point x="192" y="64" type="line"/>
      <point x="128" y="64" type="line"/>
    </contour>
    <contour>
      <point x="192" y="0" type="line"/>
      <point x="256" y="0" type="line"/>
      <point x="256" y="64" type="line"/>
      <point x="192" y="64" type="line"/>
    </contour>
    <contour>
      <point x="256" y="0" type="line"/>
      <point x="320" y="0" type="line"/>
      <point x="320" y="64" type="line"/>
      <point x="256" y="64" type="line"/>
    </contour>
    <contour>
      <point x="320" y="0" type="line"/>
      <point x="384" y="0" type="line"/>
      <point x="384" y="64" type="line"/>
      <point x="320" y="64" type="line"/>
    </contour>
    <contour>
      <point x="128" y="256" type="line"/>
      <point x="192" y="256" type="line"/>
      <point x="192" y="320" type="line"/>
      <point x="128" y="320" type="line"/>
    </contour>
    <contour>
      <point x="192" y="256" type="line"/>
      <point x="256" y="256" type="line"/>
      <point x="256" y="320" type="line"/>
      <point x="192" y="320" type="line"/>
    </contour>
    <contour>
      <point x="256" y="256" type="line"/>
      <point x="320" y="256" type="line"/>
      <point x="320" y="320" type="line"/>
      <point x="256" y="320" type="line"/>
    </contour>
  </outline>
</glyph>
<glyph name="gamma" format="1">
  <advance width="448"/>
  <unicode hex="03B3"/>
  <outline>
    <contour>
      <point x="64" y="256" type="line"/>
      <point x="128" y="256" type="line"/>
      <point x="128" y="320" type="line"/>
      <point x="64" y="320" type="line"/>
    </contour>
    <contour>
      <point x="64" y="192" type="line"/>
      <point x="128" y="192" type="line"/>
      <point x="128" y="256" type="line"/>
      <point x="64" y="256" type="line"/>
    </contour>
    <contour>
      <point x="320" y="256" type="line"/>
      <point x="384" y="256" type="line"/>
      <point x="384" y="320" type="line"/>
      <point x="320" y="320" type="line"/>
    </contour>
    <contour>
      <point x="320" y="192" type="line"/>
      <point x="384" y="192" type="line"/>
      <point x="384" y="256" type="line"/>
      <point x="320" y="256" type="line"/>
    </contour>
    <contour>
      <point x="128" y="128" type="line"/>
      <point x="192" y="128" type="line"/>
      <point x="192" y="192" type="line"/>
      <point x="128" y="192" type="line"/>
    </contour>
    <contour>
      <point x="128" y="64" type="line"/>
      <point x="192" y="64" type="line"/>
      <point x="192" y="128" type="line"/>
      <point x="128" y="128" type="line"/>
    </contour>
    <contour>
      <point x="256" y="128" type="line"/>
      <point x="320" y="128" type="line"/>
      <point x="320" y="192" type="line"/>
      <point x="256" y="192" type="line"/>
    </contour>
    <contour>
      <point x="256" y="64" type="line"/>
      <point x="320" y="64" type="line"/>
      <point x="320" y="128" type="line"/>
      <point x="256" y="128" type="line"/>
    </contour>
    <contour>
      <point x="192" y="0" type="line"/>
      <point x="256" y="0" type="line"/>
      <point x="256" y="64" type="line"/>
      <point x="192" y="64" type="line"/>
    </contour>
    <contour>
      <point x="320" y="320" type="line"/>
      <point x="384" y="320" type="line"/>
      <point x="384" y="384" type="line"/>
      <point x="320" y="384" type="line"/>
    </contour>
    <contour>
      <point x="320" y="384" type="line"/>
      <point x="384" y="384" type="line"/>
      <point x="384" y="448" type="line"/>
      <point x="320" y="448" type="line"/>
    </contour>
    <contour>
      <point x="64" y="320" type="line"/>
      <point x="128" y="320" type="line"/>
      <point x="128" y="384" type="line"/>
      <point x="64" y="384" type="line"/>
    </contour>
    <contour>
      <point x="64" y="384" type="line"/>
      <point x="128" y="384" type="line"/>
      <point x="128" y="448" type="line"/>
      <point x="64" y="448" type="line"/>
    </contour>
    <contour>
      <point x="192" y="-64" type="line"/>
      <point x="256" y="-64" type="line"/>
      <point x="256" y="0" type="line"/>
      <point x="192" y="0" type="line"/>
    </contour>
    <contour>
      <point x="192" y="-128" type="line"/>
      <point x="256" y="-128" type="line"/>
      <point x="256" y="-64" type="line"/>
      <point x="192" y="-64" type="line"/>
    </contour>
    <contour>
      <point x="192" y="-192" type="line"/>
      <point x="256" y="-192" type="line"/>
      <point x="256" y="-128" type="line"/>
      <point x="192" y="-128" type="line"/>
    </contour>
  </outline>
</glyph>
<glyph name="afii10108" format="1">
  <advance width="448"/>
  <unicode hex="045B"/>
  <outline>
    <contour>
      <point x="0" y="512" type="line"/>
      <point x="64" y="512" type="line"/>
      <point x="64" y="576" type="line"/>
      <point x="0" y="576" type="line"/>
    </contour>
    <contour>
      <point x="64" y="512" type="line"/>
      <point x="128" y="512" type="line"/>
      <point x="128" y="576" type="line"/>
      <point x="64" y="576" type="line"/>
    </contour>
    <contour>
      <point x="128" y="512" type="line"/>
      <point x="192" y="512" type="line"/>
      <point x="192" y="576" type="line"/>
      <point x="128" y="576" type="line"/>
    </contour>
    <contour>
      <point x="192" y="512" type="line"/>
      <point x="256" y="512" type="line"/>
      <point x="256" y="576" type="line"/>
      <point x="192" y="576" type="line"/>
    </contour>
    <component base="h"/>
  </outline>
</glyph>
<glyph name="afii10098" format="1">
  <advance width="448"/>
  <unicode hex="0491"/>
  <outline>
    <contour>
      <point x="320" y="448" type="line"/>
      <point x="384" y="448" type="line"/>
      <point x="384" y="512" type="line"/>
      <point x="320" y="512" type="line"/>
    </contour>
    <contour>
      <point x="320" y="512" type="line"/>
      <point x="384" y="512" type="line"/>
      <point x="384" y="576" type="line"/>
      <point x="320" y="576" type="line"/>
    </contour>
    <component base="afii10068"/>
  </outline>
</glyph>
<glyph name="underscoredbl" format="1">
  <advance width="448"/>
  <unicode hex="2017"/>
  <outline>
    <contour>
      <point x="0" y="-64" type="line"/>
      <point x="64" y="-64" type="line"/>
      <point x="64" y="0" type="line"/>
      <point x="0" y="0" type="line"/>
    </contour>
    <contour>
      <point x="64" y="-64" type="line"/>
      <point x="128" y="-64" type="line"/>
      <point x="128" y="0" type="line"/>
      <point x="64" y="0" type="line"/>
    </contour>
    <contour>
      <point x="128" y="-64" type="line"/>
      <point x="192" y="-64" type="line"/>
      <point x="192" y="0" type="line"/>
      <point x="128" y="0" type="line"/>
    </contour>
    <contour>
      <point x="192" y="-64" type="line"/>
      <point x="256" y="-64" type="line"/>
      <point x="256" y="0" type="line"/>
      <point x="192" y="0" type="line"/>
    </contour>
    <contour>
      <point x="256" y="-64" type="line"/>
      <point x="320" y="-64" type="line"/>
      <point x="320" y="0" type="line"/>
      <point x="256" y="0" type="line"/>
    </contour>
    <contour>
      <point x="320" y="-64" type="line"/>
      <point x="384" y="-64" type="line"/>
      <point x="384" y="0" type="line"/>
      <point x="320" y="0" type="line"/>
    </contour>
    <contour>
      <point x="384" y="-64" type="line"/>
      <point x="448" y="-64" type="line"/>
      <point x="448" y="0" type="line"/>
      <point x="384" y="0" type="line"/>
    </contour>
    <contour>
      <point x="0" y="-192" type="line"/>
      <point x="64" y="-192" type="line"/>
      <point x="64" y="-128" type="line"/>
      <point x="0" y="-128" type="line"/>
    </contour>
    <contour>
      <point x="64" y="-192" type="line"/>
      <point x="128" y="-192" type="line"/>
      <point x="128" y="-128" type="line"/>
      <point x="64" y="-128" type="line"/>
    </contour>
    <contour>
      <point x="128" y="-192" type="line"/>
      <point x="192" y="-192" type="line"/>
      <point x="192" y="-128" type="line"/>
      <point x="128" y="-128" type="line"/>
    </contour>
    <contour>
      <point x="192" y="-192" type="line"/>
      <point x="256" y="-192" type="line"/>
      <point x="256" y="-128" type="line"/>
      <point x="192" y="-128" type="line"/>
    </contour>
    <contour>
      <point x="256" y="-192" type="line"/>
      <point x="320" y="-192" type="line"/>
      <point x="320" y="-128" type="line"/>
      <point x="256" y="-128" type="line"/>
    </contour>
    <contour>
      <point x="320" y="-192" type="line"/>
      <point x="384" y="-192" type="line"/>
      <point x="384" y="-128" type="line"/>
      <point x="320" y="-128" type="line"/>
    </contour>
    <contour>
      <point x="384" y="-192" type="line"/>
      <point x="448" y="-192" type="line"/>
      <point x="448" y="-128" type="line"/>
      <point x="384" y="-128" type="line"/>
    </contour>
  </outline>
</glyph>
<glyph name="second" format="1">
  <advance width="448"/>
  <unicode hex="2033"/>
  <outline>
    <contour>
      <point x="64" y="384" type="line"/>
      <point x="128" y="384" type="line"/>
      <point x="128" y="448" type="line"/>
      <point x="64" y="448" type="line"/>
    </contour>
    <contour>
      <point x="64" y="448" type="line"/>
      <point x="128" y="448" type="line"/>
      <point x="128" y="512" type="line"/>
      <point x="64" y="512" type="line"/>
    </contour>
    <contour>
      <point x="128" y="512" type="line"/>
      <point x="192" y="512" type="line"/>
      <point x="192" y="576" type="line"/>
      <point x="128" y="576" type="line"/>
    </contour>
    <contour>
      <point x="128" y="576" type="line"/>
      <point x="192" y="576" type="line"/>
      <point x="192" y="640" type="line"/>
      <point x="128" y="640" type="line"/>
    </contour>
    <contour>
      <point x="256" y="384" type="line"/>
      <point x="320" y="384" type="line"/>
      <point x="320" y="448" type="line"/>
      <point x="256" y="448" type="line"/>
    </contour>
    <contour>
      <point x="256" y="448" type="line"/>
      <point x="320" y="448" type="line"/>
      <point x="320" y="512" type="line"/>
      <point x="256" y="512" type="line"/>
    </contour>
    <contour>
      <point x="320" y="512" type="line"/>
      <point x="384" y="512" type="line"/>
      <point x="384" y="576" type="line"/>
      <point x="320" y="576" type="line"/>
    </contour>
    <contour>
      <point x="320" y="576" type="line"/>
      <point x="384" y="576" type="line"/>
      <point x="384" y="640" type="line"/>
      <point x="320" y="640" type="line"/>
    </contour>
  </outline>
</glyph>
<glyph name="guilsinglleft" format="1">
  <advance width="448"/>
  <unicode hex="2039"/>
  <outline>
    <contour>
      <point x="192" y="64" type="line"/>
      <point x="256" y="64" type="line"/>
      <point x="256" y="128" type="line"/>
      <point x="192" y="128" type="line"/>
    </contour>
    <contour>
      <point x="128" y="128" type="line"/>
      <point x="192" y="128" type="line"/>
      <point x="192" y="192" type="line"/>
      <point x="128" y="192" type="line"/>
    </contour>
    <contour>
      <point x="128" y="192" type="line"/>
      <point x="192" y="192" type="line"/>
      <point x="192" y="256" type="line"/>
      <point x="128" y="256" type="line"/>
    </contour>
    <contour>
      <point x="128" y="256" type="line"/>
      <point x="192" y="256" type="line"/>
      <point x="192" y="320" type="line"/>
      <point x="128" y="320" type="line"/>
    </contour>
    <contour>
      <point x="192" y="320" type="line"/>
      <point x="256" y="320" type="line"/>
      <point x="256" y="384" type="line"/>
      <point x="192" y="384" type="line"/>
    </contour>
  </outline>
</glyph>
<glyph name="guilsinglright" format="1">
  <advance width="448"/>
  <unicode hex="203A"/>
  <outline>
    <contour>
      <point x="256" y="192" type="line"/>
      <point x="320" y="192" type="line"/>
      <point x="320" y="256" type="line"/>
      <point x="256" y="256" type="line"/>
    </contour>
    <contour>
      <point x="192" y="320" type="line"/>
      <point x="256" y="320" type="line"/>
      <point x="256" y="384" type="line"/>
      <point x="192" y="384" type="line"/>
    </contour>
    <contour>
      <point x="192" y="64" type="line"/>
      <point x="256" y="64" type="line"/>
      <point x="256" y="128" type="line"/>
      <point x="192" y="128" type="line"/>
    </contour>
    <contour>
      <point x="256" y="128" type="line"/>
      <point x="320" y="128" type="line"/>
      <point x="320" y="192" type="line"/>
      <point x="256" y="192" type="line"/>
    </contour>
    <contour>
      <point x="256" y="256" type="line"/>
      <point x="320" y="256" type="line"/>
      <point x="320" y="320" type="line"/>
      <point x="256" y="320" type="line"/>
    </contour>
  </outline>
</glyph>
<glyph name="uni2259" format="1">
  <advance width="448"/>
  <unicode hex="2259"/>
  <outline>
    <contour>
      <point x="128" y="512" type="line"/>
      <point x="192" y="512" type="line"/>
      <point x="192" y="576" type="line"/>
      <point x="128" y="576" type="line"/>
    </contour>
    <contour>
      <point x="192" y="576" type="line"/>
      <point x="256" y="576" type="line"/>
      <point x="256" y="640" type="line"/>
      <point x="192" y="640" type="line"/>
    </contour>
    <contour>
      <point x="256" y="512" type="line"/>
      <point x="320" y="512" type="line"/>
      <point x="320" y="576" type="line"/>
      <point x="256" y="576" type="line"/>
    </contour>
    <contour>
      <point x="64" y="448" type="line"/>
      <point x="128" y="448" type="line"/>
      <point x="128" y="512" type="line"/>
      <point x="64" y="512" type="line"/>
    </contour>
    <contour>
      <point x="320" y="448" type="line"/>
      <point x="384" y="448" type="line"/>
      <point x="384" y="512" type="line"/>
      <point x="320" y="512" type="line"/>
    </contour>
    <component base="equal"/>
  </outline>
</glyph>
<glyph name="greaterequal" format="1">
  <advance width="448"/>
  <unicode hex="2265"/>
  <outline>
    <contour>
      <point x="64" y="0" type="line"/>
      <point x="128" y="0" type="line"/>
      <point x="128" y="64" type="line"/>
      <point x="64" y="64" type="line"/>
    </contour>
    <contour>
      <point x="128" y="0" type="line"/>
      <point x="192" y="0" type="line"/>
      <point x="192" y="64" type="line"/>
      <point x="128" y="64" type="line"/>
    </contour>
    <contour>
      <point x="192" y="0" type="line"/>
      <point x="256" y="0" type="line"/>
      <point x="256" y="64" type="line"/>
      <point x="192" y="64" type="line"/>
    </contour>
    <contour>
      <point x="256" y="0" type="line"/>
      <point x="320" y="0" type="line"/>
      <point x="320" y="64" type="line"/>
      <point x="256" y="64" type="line"/>
    </contour>
    <contour>
      <point x="320" y="0" type="line"/>
      <point x="384" y="0" type="line"/>
      <point x="384" y="64" type="line"/>
      <point x="320" y="64" type="line"/>
    </contour>
    <component base="greater" yOffset="64"/>
  </outline>
</glyph>
<glyph name="SF100000" format="1">
  <advance width="448"/>
  <unicode hex="2500"/>
  <outline>
    <contour>
      <point x="192" y="256" type="line"/>
      <point x="256" y="256" type="line"/>
      <point x="256" y="320" type="line"/>
      <point x="192" y="320" type="line"/>
    </contour>
    <contour>
      <point x="0" y="256" type="line"/>
      <point x="64" y="256" type="line"/>
      <point x="64" y="320" type="line"/>
      <point x="0" y="320" type="line"/>
    </contour>
    <contour>
      <point x="64" y="256" type="line"/>
      <point x="128" y="256" type="line"/>
      <point x="128" y="320" type="line"/>
      <point x="64" y="320" type="line"/>
    </contour>
    <contour>
      <point x="128" y="256" type="line"/>
      <point x="192" y="256" type="line"/>
      <point x="192" y="320" type="line"/>
      <point x="128" y="320" type="line"/>
    </contour>
    <contour>
      <point x="256" y="256" type="line"/>
      <point x="320" y="256" type="line"/>
      <point x="320" y="320" type="line"/>
      <point x="256" y="320" type="line"/>
    </contour>
    <contour>
      <point x="320" y="256" type="line"/>
      <point x="384" y="256" type="line"/>
      <point x="384" y="320" type="line"/>
      <point x="320" y="320" type="line"/>
    </contour>
    <contour>
      <point x="384" y="256" type="line"/>
      <point x="448" y="256" type="line"/>
      <point x="448" y="320" type="line"/>
      <point x="384" y="320" type="line"/>
    </contour>
  </outline>
</glyph>
<glyph name="SF010000" format="1">
  <advance width="448"/>
  <unicode hex="250C"/>
  <outline>
    <contour>
      <point x="192" y="256" type="line"/>
      <point x="256" y="256" type="line"/>
      <point x="256" y="320" type="line"/>
      <point x="192" y="320" type="line"/>
    </contour>
    <contour>
      <point x="256" y="256" type="line"/>
      <point x="320" y="256" type="line"/>
      <point x="320" y="320" type="line"/>
      <point x="256" y="320" type="line"/>
    </contour>
    <contour>
      <point x="320" y="256" type="line"/>
      <point x="384" y="256" type="line"/>
      <point x="384" y="320" type="line"/>
      <point x="320" y="320" type="line"/>
    </contour>
    <contour>
      <point x="384" y="256" type="line"/>
      <point x="448" y="256" type="line"/>
      <point x="448" y="320" type="line"/>
      <point x="384" y="320" type="line"/>
    </contour>
    <contour>
      <point x="192" y="192" type="line"/>
      <point x="256" y="192" type="line"/>
      <point x="256" y="256" type="line"/>
      <point x="192" y="256" type="line"/>
    </contour>
    <contour>
      <point x="192" y="128" type="line"/>
      <point x="256" y="128" type="line"/>
      <point x="256" y="192" type="line"/>
      <point x="192" y="192" type="line"/>
    </contour>
    <contour>
      <point x="192" y="64" type="line"/>
      <point x="256" y="64" type="line"/>
      <point x="256" y="128" type="line"/>
      <point x="192" y="128" type="line"/>
    </contour>
    <contour>
      <point x="192" y="0" type="line"/>
      <point x="256" y="0" type="line"/>
      <point x="256" y="64" type="line"/>
      <point x="192" y="64" type="line"/>
    </contour>
    <contour>
      <point x="192" y="-64" type="line"/>
      <point x="256" y="-64" type="line"/>
      <point x="256" y="0" type="line"/>
      <point x="192" y="0" type="line"/>
    </contour>
    <contour>
      <point x="192" y="-128" type="line"/>
      <point x="256" y="-128" type="line"/>
      <point x="256" y="-64" type="line"/>
      <point x="192" y="-64" type="line"/>
    </contour>
    <contour>
      <point x="192" y="-192" type="line"/>
      <point x="256" y="-192" type="line"/>
      <point x="256" y="-128" type="line"/>
      <point x="192" y="-128" type="line"/>
    </contour>
  </outline>
</glyph>
<glyph name="SF500000" format="1">
  <advance width="448"/>
  <unicode hex="2558"/>
  <outline>
    <contour>
      <point x="192" y="320" type="line"/>
      <point x="256" y="320" type="line"/>
      <point x="256" y="384" type="line"/>
      <point x="192" y="384" type="line"/>
    </contour>
    <contour>
      <point x="256" y="320" type="line"/>
      <point x="320" y="320" type="line"/>
      <point x="320" y="384" type="line"/>
      <point x="256" y="384" type="line"/>
    </contour>
    <contour>
      <point x="320" y="320" type="line"/>
      <point x="384" y="320" type="line"/>
      <point x="384" y="384" type="line"/>
      <point x="320" y="384" type="line"/>
    </contour>
    <contour>
      <point x="384" y="320" type="line"/>
      <point x="448" y="320" type="line"/>
      <point x="448" y="384" type="line"/>
      <point x="384" y="384" type="line"/>
    </contour>
    <contour>
      <point x="384" y="192" type="line"/>
      <point x="448" y="192" type="line"/>
      <point x="448" y="256" type="line"/>
      <point x="384" y="256" type="line"/>
    </contour>
    <contour>
      <point x="320" y="192" type="line"/>
      <point x="384" y="192" type="line"/>
      <point x="384" y="256" type="line"/>
      <point x="320" y="256" type="line"/>
    </contour>
    <contour>
      <point x="256" y="192" type="line"/>
      <point x="320" y="192" type="line"/>
      <point x="320" y="256" type="line"/>
      <point x="256" y="256" type="line"/>
    </contour>
    <contour>
      <point x="192" y="192" type="line"/>
      <point x="256" y="192" type="line"/>
      <point x="256" y="256" type="line"/>
      <point x="192" y="256" type="line"/>
    </contour>
    <contour>
      <point x="192" y="768" type="line"/>
      <point x="256" y="768" type="line"/>
      <point x="256" y="832" type="line"/>
      <point x="192" y="832" type="line"/>
    </contour>
    <contour>
      <point x="192" y="704" type="line"/>
      <point x="256" y="704" type="line"/>
      <point x="256" y="768" type="line"/>
      <point x="192" y="768" type="line"/>
    </contour>
    <contour>
      <point x="192" y="640" type="line"/>
      <point x="256" y="640" type="line"/>
      <point x="256" y="704" type="line"/>
      <point x="192" y="704" type="line"/>
    </contour>
    <contour>
      <point x="192" y="576" type="line"/>
      <point x="256" y="576" type="line"/>
      <point x="256" y="640" type="line"/>
      <point x="192" y="640" type="line"/>
    </contour>
    <contour>
      <point x="192" y="512" type="line"/>
      <point x="256" y="512" type="line"/>
      <point x="256" y="576" type="line"/>
      <point x="192" y="576" type="line"/>
    </contour>
    <contour>
      <point x="192" y="448" type="line"/>
      <point x="256" y="448" type="line"/>
      <point x="256" y="512" type="line"/>
      <point x="192" y="512" type="line"/>
    </contour>
    <contour>
      <point x="192" y="384" type="line"/>
      <point x="256" y="384" type="line"/>
      <point x="256" y="448" type="line"/>
      <point x="192" y="448" type="line"/>
    </contour>
    <contour>
      <point x="192" y="256" type="line"/>
      <point x="256" y="256" type="line"/>
      <point x="256" y="320" type="line"/>
      <point x="192" y="320" type="line"/>
    </contour>
  </outline>
</glyph>
<glyph name="SF490000" format="1">
  <advance width="448"/>
  <unicode hex="2559"/>
  <outline>
    <contour>
      <point x="128" y="768" type="line"/>
      <point x="192" y="768" type="line"/>
      <point x="192" y="832" type="line"/>
      <point x="128" y="832" type="line"/>
    </contour>
    <contour>
      <point x="128" y="704" type="line"/>
      <point x="192" y="704" type="line"/>
      <point x="192" y="768" type="line"/>
      <point x="128" y="768" type="line"/>
    </contour>
    <contour>
      <point x="128" y="576" type="line"/>
      <point x="192" y="576" type="line"/>
      <point x="192" y="640" type="line"/>
      <point x="128" y="640" type="line"/>
    </contour>
    <contour>
      <point x="128" y="640" type="line"/>
      <point x="192" y="640" type="line"/>
      <point x="192" y="704" type="line"/>
      <point x="128" y="704" type="line"/>
    </contour>
    <contour>
      <point x="128" y="512" type="line"/>
      <point x="192" y="512" type="line"/>
      <point x="192" y="576" type="line"/>
      <point x="128" y="576" type="line"/>
    </contour>
    <contour>
      <point x="128" y="320" type="line"/>
      <point x="192" y="320" type="line"/>
      <point x="192" y="384" type="line"/>
      <point x="128" y="384" type="line"/>
    </contour>
    <contour>
      <point x="128" y="384" type="line"/>
      <point x="192" y="384" type="line"/>
      <point x="192" y="448" type="line"/>
      <point x="128" y="448" type="line"/>
    </contour>
    <contour>
      <point x="128" y="448" type="line"/>
      <point x="192" y="448" type="line"/>
      <point x="192" y="512" type="line"/>
      <point x="128" y="512" type="line"/>
    </contour>
    <contour>
      <point x="256" y="320" type="line"/>
      <point x="320" y="320" type="line"/>
      <point x="320" y="384" type="line"/>
      <point x="256" y="384" type="line"/>
    </contour>
    <contour>
      <point x="256" y="448" type="line"/>
      <point x="320" y="448" type="line"/>
      <point x="320" y="512" type="line"/>
      <point x="256" y="512" type="line"/>
    </contour>
    <contour>
      <point x="256" y="384" type="line"/>
      <point x="320" y="384" type="line"/>
      <point x="320" y="448" type="line"/>
      <point x="256" y="448" type="line"/>
    </contour>
    <contour>
      <point x="256" y="512" type="line"/>
      <point x="320" y="512" type="line"/>
      <point x="320" y="576" type="line"/>
      <point x="256" y="576" type="line"/>
    </contour>
    <contour>
      <point x="256" y="576" type="line"/>
      <point x="320" y="576" type="line"/>
      <point x="320" y="640" type="line"/>
      <point x="256" y="640" type="line"/>
    </contour>
    <contour>
      <point x="256" y="640" type="line"/>
      <point x="320" y="640" type="line"/>
      <point x="320" y="704" type="line"/>
      <point x="256" y="704" type="line"/>
    </contour>
    <contour>
      <point x="256" y="704" type="line"/>
      <point x="320" y="704" type="line"/>
      <point x="320" y="768" type="line"/>
      <point x="256" y="768" type="line"/>
    </contour>
    <contour>
      <point x="256" y="768" type="line"/>
      <point x="320" y="768" type="line"/>
      <point x="320" y="832" type="line"/>
      <point x="256" y="832" type="line"/>
    </contour>
    <contour>
      <point x="128" y="256" type="line"/>
      <point x="192" y="256" type="line"/>
      <point x="192" y="320" type="line"/>
      <point x="128" y="320" type="line"/>
    </contour>
    <contour>
      <point x="192" y="256" type="line"/>
      <point x="256" y="256" type="line"/>
      <point x="256" y="320" type="line"/>
      <point x="192" y="320" type="line"/>
    </contour>
    <contour>
      <point x="256" y="256" type="line"/>
      <point x="320" y="256" type="line"/>
      <point x="320" y="320" type="line"/>
      <point x="256" y="320" type="line"/>
    </contour>
    <contour>
      <point x="320" y="256" type="line"/>
      <point x="384" y="256" type="line"/>
      <point x="384" y="320" type="line"/>
      <point x="320" y="320" type="line"/>
    </contour>
    <contour>
      <point x="384" y="256" type="line"/>
      <point x="448" y="256" type="line"/>
      <point x="448" y="320" type="line"/>
      <point x="384" y="320" type="line"/>
    </contour>
  </outline>
</glyph>
<glyph name="uni256D" format="1">
  <advance width="448"/>
  <unicode hex="256D"/>
  <outline>
    <contour>
      <point x="192" y="-192" type="line"/>
      <point x="256" y="-192" type="line"/>
      <point x="256" y="-128" type="line"/>
      <point x="192" y="-128" type="line"/>
    </contour>
    <contour>
      <point x="192" y="-128" type="line"/>
      <point x="256" y="-128" type="line"/>
      <point x="256" y="-64" type="line"/>
      <point x="192" y="-64" type="line"/>
    </contour>
    <contour>
      <point x="384" y="256" type="line"/>
      <point x="448" y="256" type="line"/>
      <point x="448" y="320" type="line"/>
      <point x="384" y="320" type="line"/>
    </contour>
    <contour>
      <point x="192" y="0" type="line"/>
      <point x="256" y="0" type="line"/>
      <point x="256" y="64" type="line"/>
      <point x="192" y="64" type="line"/>
    </contour>
    <contour>
      <point x="192" y="-64" type="line"/>
      <point x="256" y="-64" type="line"/>
      <point x="256" y="0" type="line"/>
      <point x="192" y="0" type="line"/>
    </contour>
    <contour>
      <point x="320" y="192" type="line"/>
      <point x="384" y="192" type="line"/>
      <point x="384" y="256" type="line"/>
      <point x="320" y="256" type="line"/>
    </contour>
    <contour>
      <point x="256" y="128" type="line"/>
      <point x="320" y="128" type="line"/>
      <point x="320" y="192" type="line"/>
      <point x="256" y="192" type="line"/>
    </contour>
    <contour>
      <point x="256" y="64" type="line"/>
      <point x="320" y="64" type="line"/>
      <point x="320" y="128" type="line"/>
      <point x="256" y="128" type="line"/>
    </contour>
  </outline>
</glyph>
<glyph name="uni256E" format="1">
  <advance width="448"/>
  <unicode hex="256E"/>
  <outline>
    <contour>
      <point x="0" y="256" type="line"/>
      <point x="64" y="256" type="line"/>
      <point x="64" y="320" type="line"/>
      <point x="0" y="320" type="line"/>
    </contour>
    <contour>
      <point x="64" y="192" type="line"/>
      <point x="128" y="192" type="line"/>
      <point x="128" y="256" type="line"/>
      <point x="64" y="256" type="line"/>
    </contour>
    <contour>
      <point x="128" y="128" type="line"/>
      <point x="192" y="128" type="line"/>
      <point x="192" y="192" type="line"/>
      <point x="128" y="192" type="line"/>
    </contour>
    <contour>
      <point x="128" y="64" type="line"/>
      <point x="192" y="64" type="line"/>
      <point x="192" y="128" type="line"/>
      <point x="128" y="128" type="line"/>
    </contour>
    <contour>
      <point x="192" y="0" type="line"/>
      <point x="256" y="0" type="line"/>
      <point x="256" y="64" type="line"/>
      <point x="192" y="64" type="line"/>
    </contour>
    <contour>
      <point x="192" y="-64" type="line"/>
      <point x="256" y="-64" type="line"/>
      <point x="256" y="0" type="line"/>
      <point x="192" y="0" type="line"/>
    </contour>
    <contour>
      <point x="192" y="-128" type="line"/>
      <point x="256" y="-128" type="line"/>
      <point x="256" y="-64" type="line"/>
      <point x="192" y="-64" type="line"/>
    </contour>
    <contour>
      <point x="192" y="-192" type="line"/>
      <point x="256" y="-192" type="line"/>
      <point x="256" y="-128" type="line"/>
      <point x="192" y="-128" type="line"/>
    </contour>
  </outline>
</glyph>
<glyph name="dnblock" format="1">
  <advance width="448"/>
  <unicode hex="2584"/>
  <outline>
    <contour>
      <point x="448" y="320" type="line"/>
      <point x="0" y="320" type="line"/>
      <point x="0" y="-192" type="line"/>
      <point x="448" y="-192" type="line"/>
    </contour>
  </outline>
</glyph>
<glyph name="lfblock" format="1">
  <advance width="448"/>
  <unicode hex="258C"/>
  <outline>
    <contour>
      <point x="224" y="832" type="line"/>
      <point x="0" y="832" type="line"/>
      <point x="0" y="-192" type="line"/>
      <point x="224" y="-192" type="line"/>
    </contour>
  </outline>
</glyph>
<glyph name="rtblock" format="1">
  <advance width="448"/>
  <unicode hex="2590"/>
  <outline>
    <contour>
      <point x="448" y="832" type="line"/>
      <point x="224" y="832" type="line"/>
      <point x="224" y="-192" type="line"/>
      <point x="448" y="-192" type="line"/>
    </contour>
  </outline>
</glyph>
<glyph name="male" format="1">
  <advance width="448"/>
  <unicode hex="2642"/>
  <outline>
    <contour>
      <point x="128" y="64" type="line"/>
      <point x="192" y="64" type="line"/>
      <point x="192" y="128" type="line"/>
      <point x="128" y="128" type="line"/>
    </contour>
    <contour>
      <point x="192" y="64" type="line"/>
      <point x="256" y="64" type="line"/>
      <point x="256" y="128" type="line"/>
      <point x="192" y="128" type="line"/>
    </contour>
    <contour>
      <point x="256" y="64" type="line"/>
      <point x="320" y="64" type="line"/>
      <point x="320" y="128" type="line"/>
      <point x="256" y="128" type="line"/>
    </contour>
    <contour>
      <point x="320" y="128" type="line"/>
      <point x="384" y="128" type="line"/>
      <point x="384" y="192" type="line"/>
      <point x="320" y="192" type="line"/>
    </contour>
    <contour>
      <point x="320" y="192" type="line"/>
      <point x="384" y="192" type="line"/>
      <point x="384" y="256" type="line"/>
      <point x="320" y="256" type="line"/>
    </contour>
    <contour>
      <point x="320" y="256" type="line"/>
      <point x="384" y="256" type="line"/>
      <point x="384" y="320" type="line"/>
      <point x="320" y="320" type="line"/>
    </contour>
    <contour>
      <point x="256" y="320" type="line"/>
      <point x="320" y="320" type="line"/>
      <point x="320" y="384" type="line"/>
      <point x="256" y="384" type="line"/>
    </contour>
    <contour>
      <point x="192" y="320" type="line"/>
      <point x="256" y="320" type="line"/>
      <point x="256" y="384" type="line"/>
      <point x="192" y="384" type="line"/>
    </contour>
    <contour>
      <point x="128" y="320" type="line"/>
      <point x="192" y="320" type="line"/>
      <point x="192" y="384" type="line"/>
      <point x="128" y="384" type="line"/>
    </contour>
    <contour>
      <point x="64" y="256" type="line"/>
      <point x="128" y="256" type="line"/>
      <point x="128" y="320" type="line"/>
      <point x="64" y="320" type="line"/>
    </contour>
    <contour>
      <point x="64" y="192" type="line"/>
      <point x="128" y="192" type="line"/>
      <point x="128" y="256" type="line"/>
      <point x="64" y="256" type="line"/>
    </contour>
    <contour>
      <point x="64" y="128" type="line"/>
      <point x="128" y="128" type="line"/>
      <point x="128" y="192" type="line"/>
      <point x="64" y="192" type="line"/>
    </contour>
    <contour>
      <point x="384" y="448" type="line"/>
      <point x="448" y="448" type="line"/>
      <point x="448" y="512" type="line"/>
      <point x="384" y="512" type="line"/>
    </contour>
    <contour>
      <point x="320" y="448" type="line"/>
      <point x="384" y="448" type="line"/>
      <point x="384" y="512" type="line"/>
      <point x="320" y="512" type="line"/>
    </contour>
    <contour>
      <point x="384" y="384" type="line"/>
      <point x="448" y="384" type="line"/>
      <point x="448" y="448" type="line"/>
      <point x="384" y="448" type="line"/>
    </contour>
    <contour>
      <point x="320" y="320" type="line"/>
      <point x="384" y="320" type="line"/>
      <point x="384" y="384" type="line"/>
      <point x="320" y="384" type="line"/>
    </contour>
    <contour>
      <point x="448" y="448" type="line"/>
      <point x="512" y="448" type="line"/>
      <point x="512" y="512" type="line"/>
      <point x="448" y="512" type="line"/>
    </contour>
    <contour>
      <point x="448" y="384" type="line"/>
      <point x="512" y="384" type="line"/>
      <point x="512" y="448" type="line"/>
      <point x="448" y="448" type="line"/>
    </contour>
    <contour>
      <point x="448" y="320" type="line"/>
      <point x="512" y="320" type="line"/>
      <point x="512" y="384" type="line"/>
      <point x="448" y="384" type="line"/>
    </contour>
  </outline>
</glyph>
<glyph name="musicalnote" format="1">
  <advance width="448"/>
  <unicode hex="266A"/>
  <outline>
    <contour>
      <point x="64" y="0" type="line"/>
      <point x="128" y="0" type="line"/>
      <point x="128" y="64" type="line"/>
      <point x="64" y="64" type="line"/>
    </contour>
    <contour>
      <point x="128" y="0" type="line"/>
      <point x="192" y="0" type="line"/>
      <point x="192" y="64" type="line"/>
      <point x="128" y="64" type="line"/>
    </contour>
    <contour>
      <point x="192" y="128" type="line"/>
      <point x="256" y="128" type="line"/>
      <point x="256" y="192" type="line"/>
      <point x="192" y="192" type="line"/>
    </contour>
    <contour>
      <point x="64" y="64" type="line"/>
      <point x="128" y="64" type="line"/>
      <point x="128" y="128" type="line"/>
      <point x="64" y="128" type="line"/>
    </contour>
    <contour>
      <point x="128" y="64" type="line"/>
      <point x="192" y="64" type="line"/>
      <point x="192" y="128" type="line"/>
      <point x="128" y="128" type="line"/>
    </contour>
    <contour>
      <point x="192" y="64" type="line"/>
      <point x="256" y="64" type="line"/>
      <point x="256" y="128" type="line"/>
      <point x="192" y="128" type="line"/>
    </contour>
    <contour>
      <point x="192" y="192" type="line"/>
      <point x="256" y="192" type="line"/>
      <point x="256" y="256" type="line"/>
      <point x="192" y="256" type="line"/>
    </contour>
    <contour>
      <point x="192" y="256" type="line"/>
      <point x="256" y="256" type="line"/>
      <point x="256" y="320" type="line"/>
      <point x="192" y="320" type="line"/>
    </contour>
    <contour>
      <point x="192" y="320" type="line"/>
      <point x="256" y="320" type="line"/>
      <point x="256" y="384" type="line"/>
      <point x="192" y="384" type="line"/>
    </contour>
    <contour>
      <point x="192" y="384" type="line"/>
      <point x="256" y="384" type="line"/>
      <point x="256" y="448" type="line"/>
      <point x="192" y="448" type="line"/>
    </contour>
    <contour>
      <point x="192" y="448" type="line"/>
      <point x="256" y="448" type="line"/>
      <point x="256" y="512" type="line"/>
      <point x="192" y="512" type="line"/>
    </contour>
    <contour>
      <point x="320" y="320" type="line"/>
      <point x="384" y="320" type="line"/>
      <point x="384" y="384" type="line"/>
      <point x="320" y="384" type="line"/>
    </contour>
    <contour>
      <point x="128" y="128" type="line"/>
      <point x="192" y="128" type="line"/>
      <point x="192" y="192" type="line"/>
      <point x="128" y="192" type="line"/>
    </contour>
    <contour>
      <point x="320" y="256" type="line"/>
      <point x="384" y="256" type="line"/>
      <point x="384" y="320" type="line"/>
      <point x="320" y="320" type="line"/>
    </contour>
    <contour>
      <point x="256" y="384" type="line"/>
      <point x="320" y="384" type="line"/>
      <point x="320" y="448" type="line"/>
      <point x="256" y="448" type="line"/>
    </contour>
    <contour>
      <point x="320" y="192" type="line"/>
      <point x="384" y="192" type="line"/>
      <point x="384" y="256" type="line"/>
      <point x="320" y="256" type="line"/>
    </contour>
  </outline>
</glyph>
<glyph name=".notdef" format="1">
  <advance width="448"/>
  <outline>
    <contour>
      <point x="64.0" y="0.0" type="line"/>
      <point x="128.0" y="0.0" type="line"/>
      <point x="128.0" y="64.0" type="line"/>
      <point x="64.0" y="64.0" type="line"/>
    </contour>
    <contour>
      <point x="64.0" y="64.0" type="line"/>
      <point x="128.0" y="64.0" type="line"/>
      <point x="128.0" y="128.0" type="line"/>
      <point x="64.0" y="128.0" type="line"/>
    </contour>
    <contour>
      <point x="64.0" y="128.0" type="line"/>
      <point x="128.0" y="128.0" type="line"/>
      <point x="128.0" y="192.0" type="line"/>
      <point x="64.0" y="192.0" type="line"/>
    </contour>
    <contour>
      <point x="64.0" y="192.0" type="line"/>
      <point x="128.0" y="192.0" type="line"/>
      <point x="128.0" y="256.0" type="line"/>
      <point x="64.0" y="256.0" type="line"/>
    </contour>
    <contour>
      <point x="64.0" y="256.0" type="line"/>
      <point x="128.0" y="256.0" type="line"/>
      <point x="128.0" y="320.0" type="line"/>
      <point x="64.0" y="320.0" type="line"/>
    </contour>
    <contour>
      <point x="64.0" y="320.0" type="line"/>
      <point x="128.0" y="320.0" type="line"/>
      <point x="128.0" y="384.0" type="line"/>
      <point x="64.0" y="384.0" type="line"/>
    </contour>
    <contour>
      <point x="64.0" y="384.0" type="line"/>
      <point x="128.0" y="384.0" type="line"/>
      <point x="128.0" y="448.0" type="line"/>
      <point x="64.0" y="448.0" type="line"/>
    </contour>
    <contour>
      <point x="64.0" y="448.0" type="line"/>
      <point x="128.0" y="448.0" type="line"/>
      <point x="128.0" y="512.0" type="line"/>
      <point x="64.0" y="512.0" type="line"/>
    </contour>
    <contour>
      <point x="64.0" y="512.0" type="line"/>
      <point x="128.0" y="512.0" type="line"/>
      <point x="128.0" y="576.0" type="line"/>
      <point x="64.0" y="576.0" type="line"/>
    </contour>
    <contour>
      <point x="64.0" y="576.0" type="line"/>
      <point x="128.0" y="576.0" type="line"/>
      <point x="128.0" y="640.0" type="line"/>
      <point x="64.0" y="640.0" type="line"/>
    </contour>
    <contour>
      <point x="320.0" y="320.0" type="line"/>
      <point x="384.0" y="320.0" type="line"/>
      <point x="384.0" y="384.0" type="line"/>
      <point x="320.0" y="384.0" type="line"/>
    </contour>
    <contour>
      <point x="320.0" y="576.0" type="line"/>
      <point x="384.0" y="576.0" type="line"/>
      <point x="384.0" y="640.0" type="line"/>
      <point x="320.0" y="640.0" type="line"/>
    </contour>
    <contour>
      <point x="320.0" y="512.0" type="line"/>
      <point x="384.0" y="512.0" type="line"/>
      <point x="384.0" y="576.0" type="line"/>
      <point x="320.0" y="576.0" type="line"/>
    </contour>
    <contour>
      <point x="320.0" y="448.0" type="line"/>
      <point x="384.0" y="448.0" type="line"/>
      <point x="384.0" y="512.0" type="line"/>
      <point x="320.0" y="512.0" type="line"/>
    </contour>
    <contour>
      <point x="320.0" y="384.0" type="line"/>
      <point x="384.0" y="384.0" type="line"/>
      <point x="384.0" y="448.0" type="line"/>
      <point x="320.0" y="448.0" type="line"/>
    </contour>
    <contour>
      <point x="320.0" y="256.0" type="line"/>
      <point x="384.0" y="256.0" type="line"/>
      <point x="384.0" y="320.0" type="line"/>
      <point x="320.0" y="320.0" type="line"/>
    </contour>
    <contour>
      <point x="320.0" y="192.0" type="line"/>
      <point x="384.0" y="192.0" type="line"/>
      <point x="384.0" y="256.0" type="line"/>
      <point x="320.0" y="256.0" type="line"/>
    </contour>
    <contour>
      <point x="320.0" y="128.0" type="line"/>
      <point x="384.0" y="128.0" type="line"/>
      <point x="384.0" y="192.0" type="line"/>
      <point x="320.0" y="192.0" type="line"/>
    </contour>
    <contour>
      <point x="320.0" y="64.0" type="line"/>
      <point x="384.0" y="64.0" type="line"/>
      <point x="384.0" y="128.0" type="line"/>
      <point x="320.0" y="128.0" type="line"/>
    </contour>
    <contour>
      <point x="320.0" y="0.0" type="line"/>
      <point x="384.0" y="0.0" type="line"/>
      <point x="384.0" y="64.0" type="line"/>
      <point x="320.0" y="64.0" type="line"/>
    </contour>
    <contour>
      <point x="128.0" y="576.0" type="line"/>
      <point x="192.0" y="576.0" type="line"/>
      <point x="192.0" y="640.0" type="line"/>
      <point x="128.0" y="640.0" type="line"/>
    </contour>
    <contour>
      <point x="192.0" y="576.0" type="line"/>
      <point x="256.0" y="576.0" type="line"/>
      <point x="256.0" y="640.0" type="line"/>
      <point x="192.0" y="640.0" type="line"/>
    </contour>
    <contour>
      <point x="256.0" y="576.0" type="line"/>
      <point x="320.0" y="576.0" type="line"/>
      <point x="320.0" y="640.0" type="line"/>
      <point x="256.0" y="640.0" type="line"/>
    </contour>
    <contour>
      <point x="128.0" y="0.0" type="line"/>
      <point x="192.0" y="0.0" type="line"/>
      <point x="192.0" y="64.0" type="line"/>
      <point x="128.0" y="64.0" type="line"/>
    </contour>
    <contour>
      <point x="192.0" y="0.0" type="line"/>
      <point x="256.0" y="0.0" type="line"/>
      <point x="256.0" y="64.0" type="line"/>
      <point x="192.0" y="64.0" type="line"/>
    </contour>
    <contour>
      <point x="256.0" y="0.0" type="line"/>
      <point x="320.0" y="0.0" type="line"/>
      <point x="320.0" y="64.0" type="line"/>
      <point x="256.0" y="64.0" type="line"/>
    </contour>
    <contour>
      <point x="128.0" y="448.0" type="line"/>
      <point x="192.0" y="448.0" type="line"/>
      <point x="192.0" y="512.0" type="line"/>
      <point x="128.0" y="512.0" type="line"/>
    </contour>
    <contour>
      <point x="192.0" y="448.0" type="line"/>
      <point x="256.0" y="448.0" type="line"/>
      <point x="256.0" y="512.0" type="line"/>
      <point x="192.0" y="512.0" type="line"/>
    </contour>
    <contour>
      <point x="256.0" y="512.0" type="line"/>
      <point x="320.0" y="512.0" type="line"/>
      <point x="320.0" y="576.0" type="line"/>
      <point x="256.0" y="576.0" type="line"/>
    </contour>
    <contour>
      <point x="192.0" y="384.0" type="line"/>
      <point x="256.0" y="384.0" type="line"/>
      <point x="256.0" y="448.0" type="line"/>
      <point x="192.0" y="448.0" type="line"/>
    </contour>
    <contour>
      <point x="128.0" y="384.0" type="line"/>
      <point x="192.0" y="384.0" type="line"/>
      <point x="192.0" y="448.0" type="line"/>
      <point x="128.0" y="448.0" type="line"/>
    </contour>
    <contour>
      <point x="128.0" y="320.0" type="line"/>
      <point x="192.0" y="320.0" type="line"/>
      <point x="192.0" y="384.0" type="line"/>
      <point x="128.0" y="384.0" type="line"/>
    </contour>
    <contour>
      <point x="192.0" y="320.0" type="line"/>
      <point x="256.0" y="320.0" type="line"/>
      <point x="256.0" y="384.0" type="line"/>
      <point x="192.0" y="384.0" type="line"/>
    </contour>
    <contour>
      <point x="256.0" y="256.0" type="line"/>
      <point x="320.0" y="256.0" type="line"/>
      <point x="320.0" y="320.0" type="line"/>
      <point x="256.0" y="320.0" type="line"/>
    </contour>
    <contour>
      <point x="256.0" y="192.0" type="line"/>
      <point x="320.0" y="192.0" type="line"/>
      <point x="320.0" y="256.0" type="line"/>
      <point x="256.0" y="256.0" type="line"/>
    </contour>
    <contour>
      <point x="128.0" y="256.0" type="line"/>
      <point x="192.0" y="256.0" type="line"/>
      <point x="192.0" y="320.0" type="line"/>
      <point x="128.0" y="320.0" type="line"/>
    </contour>
    <contour>
      <point x="128.0" y="192.0" type="line"/>
      <point x="192.0" y="192.0" type="line"/>
      <point x="192.0" y="256.0" type="line"/>
      <point x="128.0" y="256.0" type="line"/>
    </contour>
    <contour>
      <point x="128.0" y="128.0" type="line"/>
      <point x="192.0" y="128.0" type="line"/>
      <point x="192.0" y="192.0" type="line"/>
      <point x="128.0" y="192.0" type="line"/>
    </contour>
    <contour>
      <point x="256.0" y="128.0" type="line"/>
      <point x="320.0" y="128.0" type="line"/>
      <point x="320.0" y="192.0" type="line"/>
      <point x="256.0" y="192.0" type="line"/>
    </contour>
    <contour>
      <point x="256.0" y="64.0" type="line"/>
      <point x="320.0" y="64.0" type="line"/>
      <point x="320.0" y="128.0" type="line"/>
      <point x="256.0" y="128.0" type="line"/>
    </contour>
    <contour>
      <point x="128.0" y="64.0" type="line"/>
      <point x="192.0" y="64.0" type="line"/>
      <point x="192.0" y="128.0" type="line"/>
      <point x="128.0" y="128.0" type="line"/>
    </contour>
    <contour>
      <point x="192.0" y="128.0" type="line"/>
      <point x="256.0" y="128.0" type="line"/>
      <point x="256.0" y="192.0" type="line"/>
      <point x="192.0" y="192.0" type="line"/>
    </contour>
  </outline>
</glyph>
<glyph name="adieresis.ss03" format="1">
  <advance width="448"/>
  <outline>
    <contour>
      <point x="84" y="586" type="curve" smooth="yes"/>
      <point x="84" y="541"/>
      <point x="100" y="522"/>
      <point x="122" y="522" type="curve" smooth="yes"/>
      <point x="144" y="522"/>
      <point x="160" y="541"/>
      <point x="160" y="586" type="curve" smooth="yes"/>
      <point x="160" y="631"/>
      <point x="144" y="650"/>
      <point x="122" y="650" type="curve" smooth="yes"/>
      <point x="100" y="650"/>
      <point x="84" y="631"/>
    </contour>
    <contour>
      <point x="288" y="586" type="curve" smooth="yes"/>
      <point x="288" y="541"/>
      <point x="304" y="522"/>
      <point x="326" y="522" type="curve" smooth="yes"/>
      <point x="348" y="522"/>
      <point x="364" y="541"/>
      <point x="364" y="586" type="curve" smooth="yes"/>
      <point x="364" y="631"/>
      <point x="348" y="650"/>
      <point x="326" y="650" type="curve" smooth="yes"/>
      <point x="304" y="650"/>
      <point x="288" y="631"/>
    </contour>
    <component base="alpha"/>
  </outline>
</glyph>
<glyph name="fraction.alt" format="1">
  <advance width="448"/>
  <outline>
    <contour>
      <point x="192" y="192" type="line"/>
      <point x="256" y="192" type="line"/>
      <point x="256" y="256" type="line"/>
      <point x="192" y="256" type="line"/>
    </contour>
    <contour>
      <point x="128" y="192" type="line"/>
      <point x="192" y="192" type="line"/>
      <point x="192" y="256" type="line"/>
      <point x="128" y="256" type="line"/>
    </contour>
    <contour>
      <point x="256" y="192" type="line"/>
      <point x="320" y="192" type="line"/>
      <point x="320" y="256" type="line"/>
      <point x="256" y="256" type="line"/>
    </contour>
    <contour>
      <point x="64" y="192" type="line"/>
      <point x="128" y="192" type="line"/>
      <point x="128" y="256" type="line"/>
      <point x="64" y="256" type="line"/>
    </contour>
    <contour>
      <point x="320" y="192" type="line"/>
      <point x="384" y="192" type="line"/>
      <point x="384" y="256" type="line"/>
      <point x="320" y="256" type="line"/>
    </contour>
  </outline>
</glyph>
<glyph name="uni0302.case" format="1">
  <advance width="448"/>
  <outline>
    <contour>
      <point x="224" y="640" type="move" name="_top"/>
    </contour>
    <contour>
      <point x="128" y="704" type="line"/>
      <point x="192" y="704" type="line"/>
      <point x="192" y="768" type="line"/>
      <point x="128" y="768" type="line"/>
    </contour>
    <contour>
      <point x="192" y="768" type="line"/>
      <point x="256" y="768" type="line"/>
      <point x="256" y="832" type="line"/>
      <point x="192" y="832" type="line"/>
    </contour>
    <contour>
      <point x="256" y="704" type="line"/>
      <point x="320" y="704" type="line"/>
      <point x="320" y="768" type="line"/>
      <point x="256" y="768" type="line"/>
    </contour>
  </outline>
</glyph>
<glyph name="uni0304.case" format="1">
  <advance width="448"/>
  <outline>
    <contour>
      <point x="224" y="640" type="move" name="_top"/>
    </contour>
    <contour>
      <point x="64" y="704" type="line"/>
      <point x="128" y="704" type="line"/>
      <point x="128" y="768" type="line"/>
      <point x="64" y="768" type="line"/>
    </contour>
    <contour>
      <point x="320" y="704" type="line"/>
      <point x="384" y="704" type="line"/>
      <point x="384" y="768" type="line"/>
      <point x="320" y="768" type="line"/>
    </contour>
    <contour>
      <point x="128" y="704" type="line"/>
      <point x="192" y="704" type="line"/>
      <point x="192" y="768" type="line"/>
      <point x="128" y="768" type="line"/>
    </contour>
    <contour>
      <point x="192" y="704" type="line"/>
      <point x="256" y="704" type="line"/>
      <point x="256" y="768" type="line"/>
      <point x="192" y="768" type="line"/>
    </contour>
    <contour>
      <point x="256" y="704" type="line"/>
      <point x="320" y="704" type="line"/>
      <point x="320" y="768" type="line"/>
      <point x="256" y="768" type="line"/>
    </contour>
  </outline>
</glyph>
<glyph name="uni030B.case" format="1">
  <advance width="448"/>
  <outline>
    <contour>
      <point x="128" y="704" type="line"/>
      <point x="192" y="704" type="line"/>
      <point x="192" y="768" type="line"/>
      <point x="128" y="768" type="line"/>
    </contour>
    <contour>
      <point x="192" y="768" type="line"/>
      <point x="256" y="768" type="line"/>
      <point x="256" y="832" type="line"/>
      <point x="192" y="832" type="line"/>
    </contour>
    <contour>
      <point x="320" y="704" type="line"/>
      <point x="384" y="704" type="line"/>
      <point x="384" y="768" type="line"/>
      <point x="320" y="768" type="line"/>
    </contour>
    <contour>
      <point x="384" y="768" type="line"/>
      <point x="448" y="768" type="line"/>
      <point x="448" y="832" type="line"/>
      <point x="384" y="832" type="line"/>
    </contour>
    <contour>
      <point x="224" y="640" type="move" name="_top"/>
    </contour>
  </outline>
</glyph>
